<svg width="53" height="53" viewBox="0 0 53 53" fill="none" xmlns="http://www.w3.org/2000/svg">
<g clip-path="url(#clip0_108_2)">
<circle cx="26.5" cy="26.5" r="26.5" fill="white"/>
<path d="M25.3247 39H26.3364L16.3096 12.9302H15.3882L5.36133 39H6.35498L9.7876 29.9487H21.9102L25.3247 39ZM15.8037 14.1768H15.894L21.585 29.1177H10.1128L15.8037 14.1768ZM37.5918 39C43.0298 39 46.354 36.3262 46.354 32.1528C46.354 28.2866 43.3911 25.9199 39.6694 25.5405V25.4683C42.9395 24.8179 44.9629 22.4512 44.9629 19.2354C44.9629 15.4775 41.8735 12.9302 37.3389 12.9302H28.9561V39H37.5918ZM29.8594 13.7612H37.2666C41.3496 13.7612 44.0596 15.9473 44.0596 19.2534C44.0596 22.8667 41.2773 25.1792 37.104 25.1792H29.8594V13.7612ZM29.8594 38.1689V26.0103H37.1582C42.3433 26.0103 45.4688 28.377 45.4688 32.1348C45.4688 35.8022 42.4878 38.1689 37.5557 38.1689H29.8594Z" fill="black"/>
</g>
<defs>
<clipPath id="clip0_108_2">
<rect width="53" height="53" fill="white"/>
</clipPath>
</defs>
</svg>
